<svg width="50" height="404" viewBox="0 0 50 404" fill="none" xmlns="http://www.w3.org/2000/svg">
<path d="M50 248L40 242.226L40 253.774L50 248ZM1 249L41 249L41 247L1 247L1 249Z" fill="#2D2D2D"/>
<path d="M49.9998 398L39.9998 392.227L39.9998 403.773L49.9998 398ZM0.000320435 36L0.000354639 388L2.00035 388L2.00032 36L0.000320435 36ZM11.0004 399L40.9998 399L40.9998 397L11.0004 397L11.0004 399ZM0.000354639 388C0.000354374 394.075 4.92522 399 11.0004 399L11.0004 397C6.02979 397 2.00035 392.971 2.00035 388L0.000354639 388Z" fill="#2D2D2D"/>
<path d="M50 6.53126L40.0632 0.649683L39.938 12.196L50 6.53126ZM1 16.109L2 16.109L1 16.109ZM11.1084 6.1096L11.0976 7.10954L11.1084 6.1096ZM2 36L2 16.109L2.40879e-06 16.109L0 36L2 36ZM11.0976 7.10954L40.9897 7.43363L41.0114 5.43375L11.1193 5.10966L11.0976 7.10954ZM2 16.109C2 11.1003 6.08916 7.05524 11.0976 7.10954L11.1193 5.10966C4.99786 5.04329 3.15448e-06 9.98725 2.40879e-06 16.109L2 16.109Z" fill="#2D2D2D"/>
</svg>
