<svg width="195" height="63" viewBox="0 0 195 63" fill="none" xmlns="http://www.w3.org/2000/svg">
<path d="M195 57L185 51.2265L185 62.7735L195 57ZM-9.17391e-09 58L186 58L186 56L9.17124e-09 56L-9.17391e-09 58Z" fill="#2D2D2D"/>
<path d="M195 6.53126L185.063 0.649683L184.938 12.196L195 6.53126ZM156.108 6.1096L156.098 7.10954L156.108 6.1096ZM147 57L147 16.109L145 16.109L145 57L147 57ZM156.098 7.10954L185.99 7.43363L186.011 5.43374L156.119 5.10966L156.098 7.10954ZM147 16.109C147 11.1003 151.089 7.05524 156.098 7.10954L156.119 5.10966C149.998 5.04329 145 9.98725 145 16.109L147 16.109Z" fill="#2D2D2D"/>
</svg>
