<svg width="50" height="36" viewBox="0 0 50 36" fill="none" xmlns="http://www.w3.org/2000/svg">
<path d="M50 6.53126L40.0632 0.649683L39.938 12.196L50 6.53126ZM1 16.109L2 16.109L1 16.109ZM11.1084 6.1096L11.0976 7.10954L11.1084 6.1096ZM2 36L2 16.109L2.40879e-06 16.109L0 36L2 36ZM11.0976 7.10954L40.9897 7.43363L41.0114 5.43375L11.1193 5.10966L11.0976 7.10954ZM2 16.109C2 11.1003 6.08916 7.05524 11.0976 7.10954L11.1193 5.10966C4.99786 5.04329 3.15448e-06 9.98725 2.40879e-06 16.109L2 16.109Z" fill="#2D2D2D"/>
</svg>
