<svg width="28" height="30" viewBox="0 0 28 30" fill="none" xmlns="http://www.w3.org/2000/svg">
<g clip-path="url(#clip0)">
<path d="M27.1501 4.35487L27.9521 2.6357C28.0221 2.4857 28.0149 2.30764 27.9323 2.1649C27.8496 2.02216 27.7047 1.93555 27.5484 1.93555H23.9355V2.90328V5.80647V6.7742H27.5484C27.7051 6.7742 27.8501 6.6871 27.9327 6.54436C28.0154 6.40162 28.0226 6.22356 27.9526 6.07356L27.1501 4.35487Z" fill="#FF6969"/>
<path d="M22.5805 18.3873H5.41943V9.67773H22.5805V18.3873Z" fill="#FF6969"/>
<path d="M2.25804 0C1.01296 0 0 1.08531 0 2.41933V27.5803C0 28.9143 1.01296 29.9996 2.25804 29.9996H23.032H23.9352V29.0319H23.032C22.285 29.0319 21.6772 28.3806 21.6772 27.5803C21.6772 26.78 22.285 26.1287 23.032 26.1287H23.9352H24.3868V0H2.25804ZM21.2368 29.0319H2.25804C1.51108 29.0319 0.903215 28.3806 0.903215 27.5803C0.903215 26.78 1.51108 26.1287 2.25804 26.1287H21.2373C20.9505 26.5342 20.7739 27.0335 20.7739 27.5803C20.7739 28.1271 20.9505 28.6264 21.2368 29.0319ZM23.032 25.161H4.51607V23.2255H3.61286V25.161H2.25804C1.74998 25.161 1.28076 25.342 0.903215 25.6458V2.41933C0.903215 1.61901 1.51108 0.96773 2.25804 0.96773H3.61286V22.2578H4.51607V0.96773H23.4836V25.161H23.032Z" fill="#2D2D2D"/>
<path d="M6.7938 8.5674L7.65682 8.85191L8.25339 6.7742H10.7128L11.3094 8.85191L12.1724 8.5674L11.6581 6.7742H12.1932V5.80647H11.3803L10.2689 1.93555H8.69823L7.58682 5.80647H6.77393V6.7742H7.30908L6.7938 8.5674ZM9.36525 2.90328H9.60099L10.4347 5.80647H8.53113L9.36525 2.90328Z" fill="#2D2D2D"/>
<path d="M17.1612 6.7742C17.1612 6.19695 16.9241 5.67728 16.5484 5.3226C16.9237 4.96793 17.1612 4.44826 17.1612 3.87101C17.1612 2.8036 16.351 1.93555 15.3548 1.93555H13.5483V8.70966H15.3548C16.3506 8.70966 17.1612 7.84161 17.1612 6.7742ZM14.4516 2.90328H15.3548C15.8529 2.90328 16.258 3.3373 16.258 3.87101C16.258 4.40471 15.8529 4.83874 15.3548 4.83874H14.4516V2.90328ZM14.4516 5.80647H15.3548C15.8529 5.80647 16.258 6.2405 16.258 6.7742C16.258 7.3079 15.8529 7.74193 15.3548 7.74193H14.4516V5.80647Z" fill="#2D2D2D"/>
<path d="M21.2257 8.70966V7.74193C19.9806 7.74193 18.9677 6.65662 18.9677 5.3226C18.9677 3.98859 19.9806 2.90328 21.2257 2.90328V1.93555C19.4825 1.93555 18.0645 3.45488 18.0645 5.3226C18.0645 7.19032 19.4825 8.70966 21.2257 8.70966Z" fill="#2D2D2D"/>
<path d="M22.129 19.3545H5.87109V20.3222H22.129V19.3545Z" fill="#2D2D2D"/>
<path d="M22.129 21.29H5.87109V22.2578H22.129V21.29Z" fill="#2D2D2D"/>
<path d="M22.1288 23.2256H21.2256V24.1933H22.1288V23.2256Z" fill="#2D2D2D"/>
<path d="M20.3225 23.2256H5.87109V24.1933H20.3225V23.2256Z" fill="#2D2D2D"/>
<path d="M19.8707 27.0967H3.61279V28.0644H19.8707V27.0967Z" fill="#2D2D2D"/>
<path d="M2.70986 27.0967H1.80664V28.0644H2.70986V27.0967Z" fill="#2D2D2D"/>
</g>
<defs>
<clipPath id="clip0">
<rect width="28" height="30" fill="white"/>
</clipPath>
</defs>
</svg>
