<svg width="30" height="31" viewBox="0 0 30 31" fill="none" xmlns="http://www.w3.org/2000/svg">
<g clip-path="url(#clip0)">
<path d="M20.1236 18.858C21.1616 18.7342 22.0031 17.9619 22.2092 16.9516H30V0.5H0V16.9516H7.79084C7.99687 17.9624 8.83844 18.7347 9.87635 18.858C10.2265 20.1185 11.0274 21.1914 12.0968 21.8905V22.893L7.15458 24.5407C5.76959 25.0023 4.83871 26.2938 4.83871 27.7537V30.5H25.1613V27.7537C25.1613 26.2933 24.2304 25.0019 22.8454 24.5407L17.9032 22.893V21.8905C18.9726 21.1914 19.7728 20.1185 20.1236 18.858ZM14.9492 12.3806L14.6898 11.8622L14.2258 12.2098C13.1623 13.0067 11.9342 13.595 10.6452 13.9269V12.5968H9.67742V14.0973C9.31782 14.1708 8.99225 14.3305 8.70968 14.5443V12.1259C8.70968 8.91742 11.3206 6.30645 14.5291 6.30645C16.4797 6.30645 18.2898 7.27514 19.3718 8.89757L19.5401 9.14967L19.7215 9.19526C20.6453 9.42586 21.2903 10.2523 21.2903 11.2047V14.5448C21.0077 14.331 20.6822 14.1708 20.3226 14.0978V11.629L19.5483 12.2098C18.3469 13.1107 16.9258 13.699 15.4395 13.9114L15.1999 13.9458C15.2757 13.4159 15.1921 12.8673 14.9492 12.3806ZM8.03514 10.158C7.3254 10.0638 6.77419 9.46083 6.77419 8.72581C6.77419 7.92558 7.42558 7.27419 8.22581 7.27419C8.65345 7.27419 9.05037 7.46344 9.32279 7.77933C8.74559 8.46993 8.3033 9.27607 8.03514 10.158ZM10.0011 7.08447C9.54913 6.59588 8.91098 6.30645 8.22581 6.30645C7.73367 6.30645 7.27649 6.45601 6.89374 6.70952L4.82217 4.63795C5.74597 3.8682 6.93249 3.40323 8.22581 3.40323C9.95621 3.40323 11.5602 4.24669 12.553 5.63428C11.594 5.92654 10.7288 6.43025 10.0011 7.08447ZM4.13795 5.32217L6.20952 7.39374C5.95601 7.77649 5.80645 8.23367 5.80645 8.72581C5.80645 9.21795 5.95601 9.67512 6.20952 10.0579L4.13795 12.1294C3.3682 11.2056 2.90323 10.0191 2.90323 8.72581C2.90323 7.43249 3.3682 6.24597 4.13795 5.32217ZM6.89374 10.7421C7.16994 10.9254 7.48748 11.0478 7.82699 11.105C7.77667 11.4388 7.74194 11.7781 7.74194 12.1259V14.0238C6.63716 13.9236 5.62925 13.4861 4.82217 12.8137L6.89374 10.7421ZM20.3023 17.8367C20.3124 17.7036 20.3226 17.5709 20.3226 17.4355V15.1052C20.8844 15.3056 21.2903 15.8379 21.2903 16.4677C21.2903 17.1049 20.8747 17.642 20.3023 17.8367ZM0.967742 1.46774H29.0323V15.9839H22.2581V11.2047C22.2581 9.87264 21.3974 8.70832 20.1421 8.30927C18.8769 6.44774 16.7836 5.33871 14.5291 5.33871C14.2035 5.33871 13.8855 5.36966 13.572 5.41408C12.4278 3.56908 10.4106 2.43548 8.22581 2.43548C4.75743 2.43548 1.93548 5.25743 1.93548 8.72581C1.93548 12.0307 4.49943 14.7428 7.74194 14.9916V15.9839H0.967742V1.46774ZM8.70968 16.4677C8.70968 15.8379 9.11558 15.3056 9.67742 15.1052V17.4355C9.67742 17.5709 9.68758 17.7036 9.69774 17.8367C9.12527 17.642 8.70968 17.1049 8.70968 16.4677ZM10.6452 17.4355V14.9233C11.9231 14.6251 13.1526 14.0963 14.2491 13.3753C14.2848 13.6952 14.2298 14.0233 14.0831 14.3161L13.6698 15.1418L15.5763 14.8701C16.9142 14.6783 18.2042 14.2128 19.3548 13.5095V17.4355C19.3548 19.8369 17.4014 21.7903 15 21.7903C12.5986 21.7903 10.6452 19.8369 10.6452 17.4355ZM12.45 23.7955L14.3158 25.6613L12.6688 27.3083L10.8141 24.3408L12.45 23.7955ZM5.80645 27.7537C5.80645 26.7108 6.4713 25.7882 7.46078 25.4586L9.8695 24.6557L12.4925 28.853L14.5161 26.8294V29.5323H9.67742V27.5968H8.70968V29.5323H5.80645V27.7537ZM24.1935 27.7537V29.5323H21.2903V27.5968H20.3226V29.5323H15.4839V26.8294L17.5075 28.853L20.1305 24.6557L22.5392 25.4586C23.5287 25.7886 24.1935 26.7108 24.1935 27.7537ZM19.1859 24.3408L17.3312 27.3083L15.6842 25.6613L17.55 23.7955L19.1859 24.3408ZM16.9355 23.0416L15 24.9771L13.0645 23.0416V22.3883C13.6656 22.6241 14.3167 22.7581 15 22.7581C15.6833 22.7581 16.3344 22.6241 16.9355 22.3883V23.0416Z" fill="#2D2D2D"/>
<path d="M17.9033 15.9839C17.9033 16.2511 17.6866 16.4677 17.4194 16.4677C17.1522 16.4677 16.9355 16.2511 16.9355 15.9839C16.9355 15.7167 17.1522 15.5 17.4194 15.5C17.6866 15.5 17.9033 15.7167 17.9033 15.9839Z" fill="#2D2D2D"/>
<path d="M13.0644 15.9839C13.0644 16.2511 12.8478 16.4677 12.5806 16.4677C12.3133 16.4677 12.0967 16.2511 12.0967 15.9839C12.0967 15.7167 12.3133 15.5 12.5806 15.5C12.8478 15.5 13.0644 15.7167 13.0644 15.9839Z" fill="#2D2D2D"/>
<path d="M16.9354 18.4033H15.9677C15.9677 18.937 15.5337 19.3711 14.9999 19.3711C14.4662 19.3711 14.0322 18.937 14.0322 18.4033H13.0645C13.0645 19.4708 13.9325 20.3388 14.9999 20.3388C16.0674 20.3388 16.9354 19.4708 16.9354 18.4033Z" fill="#2D2D2D"/>
<path d="M27.0967 2.43555H28.0644V3.40329H27.0967V2.43555Z" fill="#2D2D2D"/>
<path d="M15.4839 2.43555H26.129V3.40329H15.4839V2.43555Z" fill="#2D2D2D"/>
<path d="M18.3872 4.37109H28.0646V5.33884H18.3872V4.37109Z" fill="#2D2D2D"/>
<path d="M21.2905 6.30664H28.0647V7.27438H21.2905V6.30664Z" fill="#2D2D2D"/>
<path d="M23.2256 8.24219H28.0643V9.20993H23.2256V8.24219Z" fill="#2D2D2D"/>
<path d="M23.2256 10.1777H28.0643V11.1455H23.2256V10.1777Z" fill="#2D2D2D"/>
<path d="M23.2256 12.1133H28.0643V13.081H23.2256V12.1133Z" fill="#2D2D2D"/>
<path d="M23.2256 14.0488H28.0643V15.0166H23.2256V14.0488Z" fill="#2D2D2D"/>
</g>
<defs>
<clipPath id="clip0">
<rect width="30" height="30" fill="white" transform="translate(0 0.5)"/>
</clipPath>
</defs>
</svg>
