<svg width="30" height="24" viewBox="0 0 30 24" fill="none" xmlns="http://www.w3.org/2000/svg">
<path d="M28.1251 0.75H5.62508C5.28015 0.75 5 1.02992 5 1.37508C5 1.72 5.28015 1.99992 5.62508 1.99992C5.97 1.99992 6.25015 2.28008 6.25015 2.625V7.62492C6.25015 7.97008 5.97 8.25 5.62508 8.25C5.28015 8.25 5 8.52992 5 8.87508C5 9.22 5.28015 9.49992 5.62508 9.49992H28.1251C29.1589 9.49992 30.0001 8.65878 30.0001 7.62492V2.625C30.0001 1.59114 29.1589 0.75 28.1251 0.75Z" fill="#A61212"/>
<path d="M29.3749 22C29.2188 22 29.0137 21.9812 28.9238 21.8899C28.7389 21.7036 28.7437 21.0424 28.7476 20.4599L28.7501 20.125L28.7487 17.6325C28.7487 17.63 28.7501 17.6274 28.7501 17.6249C28.7501 17.6224 28.7487 17.6199 28.7487 17.6174V17.2898C28.745 16.7073 28.7389 16.0461 28.9249 15.86C29.0137 15.7687 29.2188 15.7499 29.3749 15.7499C29.7201 15.7499 30 15.47 30 15.1248C30 14.7799 29.7201 14.5 29.3749 14.5H3.12492C1.40259 14.5 0 15.9024 0 17.6249V20.125C0 21.8473 1.40259 23.2499 3.12492 23.2499H29.3749C29.7201 23.2499 30 22.97 30 22.6248C30 22.2799 29.7201 22 29.3749 22Z" fill="#A61212"/>
<path d="M26.875 8.25H4.375C3.34114 8.25 2.5 9.09114 2.5 10.125V13.875C2.5 14.9089 3.34114 15.75 4.375 15.75H26.875C27.9086 15.75 28.75 14.9089 28.75 13.875V10.125C28.75 9.09114 27.9086 8.25 26.875 8.25Z" fill="#FF6969"/>
<path d="M28.1249 15.125V22.625H3.12485C1.74995 22.625 0.625 21.5 0.625 20.1252V17.6251C0.625 16.2502 1.74995 15.125 3.12485 15.125H28.1249Z" fill="white"/>
<path d="M29.375 22.625V23.2501L29.3764 22.625H29.375Z" fill="white"/>
<path d="M29.375 2.62492V7.62485C29.375 8.31241 28.8126 8.875 28.1251 8.875H6.875V1.375H28.1251C28.8126 1.375 29.375 1.93736 29.375 2.62492Z" fill="white"/>
<path d="M29.3749 23.2499H3.12492C1.40259 23.2499 0 21.8487 0 20.125V17.6249C0 15.9012 1.40259 14.5 3.12492 14.5H29.3749C29.7201 14.5 30 14.7799 30 15.1248C30 15.47 29.7201 15.7499 29.3749 15.7499C29.2188 15.7499 29.0137 15.7698 28.9238 15.86C28.7389 16.0461 28.7437 16.7073 28.7476 17.2898L28.7501 20.125L28.7487 20.4612C28.745 21.0437 28.7389 21.7036 28.9249 21.8913C29.0137 21.9799 29.2188 22 29.3749 22C29.7201 22 30 22.2799 30 22.6248C30 22.97 29.7201 23.2499 29.3749 23.2499ZM3.12492 15.7499C2.09129 15.7499 1.24992 16.5911 1.24992 17.6249V20.125C1.24992 21.1586 2.09129 22 3.12492 22H27.6137C27.4901 21.5399 27.4937 21.0048 27.4988 20.4512L27.4999 17.6249L27.4988 17.2988C27.4949 16.7449 27.4901 16.21 27.6137 15.7499H3.12492Z" fill="#2D2D2D"/>
<path d="M28.1249 18.2502H3.12485C2.77992 18.2502 2.5 17.97 2.5 17.6251C2.5 17.2802 2.77992 17 3.12485 17H28.1249C28.4698 17 28.75 17.2802 28.75 17.6251C28.75 17.97 28.4698 18.2502 28.1249 18.2502Z" fill="#2D2D2D"/>
<path d="M28.1249 20.7499H3.12485C2.77992 20.7499 2.5 20.47 2.5 20.1251C2.5 19.7799 2.77992 19.5 3.12485 19.5H28.1249C28.4698 19.5 28.75 19.7799 28.75 20.1251C28.75 20.47 28.4698 20.7499 28.1249 20.7499Z" fill="#2D2D2D"/>
<path d="M26.875 15.75H4.375C3.34114 15.75 2.5 14.9089 2.5 13.875V10.125C2.5 9.09114 3.34114 8.25 4.375 8.25H26.875C27.9086 8.25 28.75 9.09114 28.75 10.125V13.875C28.75 14.9089 27.9086 15.75 26.875 15.75ZM4.375 9.49992C4.02985 9.49992 3.74992 9.78122 3.74992 10.125V13.875C3.74992 14.2188 4.02985 14.5001 4.375 14.5001H26.875C27.2199 14.5001 27.4998 14.2188 27.4998 13.875V10.125C27.4998 9.78122 27.2199 9.49992 26.875 9.49992H4.375Z" fill="#2D2D2D"/>
<path d="M5.62508 13.2498C5.28015 13.2498 5 12.9699 5 12.625V11.3748C5 11.0299 5.28015 10.75 5.62508 10.75C5.97 10.75 6.25015 11.0299 6.25015 11.3748V12.625C6.25015 12.9699 5.97 13.2498 5.62508 13.2498Z" fill="#2D2D2D"/>
<path d="M8.12508 13.2498C7.77992 13.2498 7.5 12.9699 7.5 12.625V11.3748C7.5 11.0299 7.77992 10.75 8.12508 10.75C8.47 10.75 8.74992 11.0299 8.74992 11.3748V12.625C8.74992 12.9699 8.47 13.2498 8.12508 13.2498Z" fill="#2D2D2D"/>
<path d="M21.8748 13.2499H10.6248C10.2799 13.2499 10 12.97 10 12.6251C10 12.2799 10.2799 12 10.6248 12H21.8748C22.22 12 22.4999 12.2799 22.4999 12.6251C22.4999 12.97 22.22 13.2499 21.8748 13.2499Z" fill="#2D2D2D"/>
<path d="M28.1251 9.49992H5.62508C5.28015 9.49992 5 9.22 5 8.87508C5 8.52992 5.28015 8.25 5.62508 8.25C5.97 8.25 6.25015 7.9687 6.25015 7.62492V2.625C6.25015 2.28122 5.97 1.99992 5.62508 1.99992C5.28015 1.99992 5 1.72 5 1.37508C5 1.02992 5.28015 0.75 5.62508 0.75H28.1251C29.1589 0.75 30.0001 1.59114 30.0001 2.625V7.62492C30.0001 8.65878 29.1589 9.49992 28.1251 9.49992ZM7.39388 8.25H28.1251C28.47 8.25 28.7502 7.9687 28.7502 7.62492V2.625C28.7502 2.28122 28.47 1.99992 28.1251 1.99992H7.39388C7.46254 2.19493 7.50008 2.40619 7.50008 2.625V7.62492C7.50008 7.84373 7.46254 8.05499 7.39388 8.25Z" fill="#2D2D2D"/>
<path d="M26.875 4.49992H6.87485C6.52992 4.49992 6.25 4.22 6.25 3.87485C6.25 3.52992 6.52992 3.25 6.87485 3.25H26.875C27.2199 3.25 27.4998 3.52992 27.4998 3.87485C27.4998 4.22 27.2199 4.49992 26.875 4.49992Z" fill="#2D2D2D"/>
<path d="M26.875 7.00015H6.87485C6.52992 7.00015 6.25 6.72 6.25 6.37508C6.25 6.03015 6.52992 5.75 6.87485 5.75H26.875C27.2199 5.75 27.4998 6.03015 27.4998 6.37508C27.4998 6.72 27.2199 7.00015 26.875 7.00015Z" fill="#2D2D2D"/>
</svg>
