<svg width="142" height="20" viewBox="0 0 142 20" fill="none" xmlns="http://www.w3.org/2000/svg">
<path d="M12.6293 0.454545H0.669034V15H3.70881V2.95455H9.58949V15H12.6293V0.454545ZM15.5004 19.0909H18.5259V13.2528H18.6183C19.0373 14.1619 19.9535 15.1776 21.7148 15.1776C24.2006 15.1776 26.1396 13.2102 26.1396 9.55966C26.1396 5.80966 24.1154 3.94886 21.7219 3.94886C19.8967 3.94886 19.0231 5.03551 18.6183 5.9233H18.4833V4.09091H15.5004V19.0909ZM18.462 9.54545C18.462 7.59943 19.2859 6.35653 20.756 6.35653C22.2546 6.35653 23.0501 7.65625 23.0501 9.54545C23.0501 11.4489 22.2404 12.7699 20.756 12.7699C19.3001 12.7699 18.462 11.4915 18.462 9.54545ZM31.0472 11.0085V4.09091H28.1566V15H31.1609L35.0742 8.06108V15H37.9577V4.09091H34.9748L31.0472 11.0085ZM39.8221 11.9105C39.9002 14.0412 41.8249 15.2131 44.4457 15.2131C47.1303 15.2131 49.055 14.0057 49.055 11.9744C49.055 10.4545 47.9684 9.50284 46.6332 9.41761V9.30398C47.9897 8.97727 48.7923 8.18182 48.7923 7.02415C48.7923 5.12074 47.1445 3.94886 44.4741 3.94886C42.0309 3.94886 40.1346 5.18466 40.1133 7.14489H43.0323C43.0536 6.50568 43.707 6.05824 44.609 6.05824C45.5039 6.05824 46.065 6.5554 46.065 7.28693C46.065 7.94744 45.5394 8.4304 44.6019 8.4304H43.0323V10.4119H44.6019C45.5465 10.4119 46.1786 10.9517 46.1786 11.7401C46.1786 12.6065 45.4187 13.0753 44.4315 13.0753C43.4585 13.0753 42.7837 12.6349 42.7553 11.9105H39.8221ZM53.8011 7.44318V4.09091H50.9105V15H56.0668C58.9574 15 60.6548 13.4872 60.6619 11.2358C60.6548 8.94176 58.9574 7.44318 56.0668 7.44318H53.8011ZM61.8338 15H64.8594V4.09091H61.8338V15ZM53.8011 9.82244H56.0668C57.0824 9.82244 57.7997 10.419 57.8139 11.2571C57.7997 12.0526 57.0824 12.6207 56.0668 12.6207H53.8011V9.82244ZM67.2777 15H72.647C75.3743 15 76.8942 13.8849 76.8942 12.0241C76.8942 10.5895 75.7578 9.45312 73.7976 9.31108C75.3601 9.04119 76.2905 8.21733 76.2905 7.03835C76.2905 5.14915 74.6214 4.09091 71.9297 4.09091H67.2777V15ZM70.0973 12.7344V10.3551H72.647C73.4851 10.3551 73.9964 10.831 73.9964 11.6051C73.9964 12.3082 73.4851 12.7344 72.647 12.7344H70.0973ZM70.0973 8.57955V6.40625H71.9297C72.8672 6.40625 73.4425 6.81108 73.4425 7.47869C73.4425 8.16761 72.8956 8.57955 71.9936 8.57955H70.0973ZM93.5277 11.0085V4.09091H90.6371V15H93.6413L97.5547 8.06108V15H100.438V4.09091H97.4553L93.5277 11.0085ZM102.864 15H105.889V11.1293H107.018L109.71 15H113.304L109.405 9.50284L113.261 4.09091H109.71L106.741 8.32386H105.889V4.09091H102.864V15ZM119.211 19.0909H122.237V13.2528H122.329C122.748 14.1619 123.664 15.1776 125.426 15.1776C127.912 15.1776 129.85 13.2102 129.85 9.55966C129.85 5.80966 127.826 3.94886 125.433 3.94886C123.608 3.94886 122.734 5.03551 122.329 5.9233H122.194V4.09091H119.211V19.0909ZM122.173 9.54545C122.173 7.59943 122.997 6.35653 124.467 6.35653C125.966 6.35653 126.761 7.65625 126.761 9.54545C126.761 11.4489 125.951 12.7699 124.467 12.7699C123.011 12.7699 122.173 11.4915 122.173 9.54545ZM133.364 19.0909C135.616 19.0909 136.809 17.9403 137.427 16.179L141.667 4.10511L138.464 4.09091L136.184 12.1023H136.07L133.812 4.09091H130.63L134.543 15.3125L134.366 15.7741C133.968 16.7969 133.208 16.8466 132.143 16.5199L131.461 18.7784C131.894 18.9631 132.597 19.0909 133.364 19.0909Z" fill="white"/>
<path d="M81.6918 4.09091H78.8011V15H81.6918V10.7173H85.4205V15H88.2898V4.09091H85.4205V8.33807H81.6918V4.09091Z" fill="#FF3737"/>
</svg>
