<svg width="20" height="20" viewBox="0 0 20 20" fill="none" xmlns="http://www.w3.org/2000/svg">
<path d="M0 20L1.3793 15C0.482773 13.4483 0 11.7241 0 9.93102C0 4.48277 4.48277 0 9.96551 0C15.4482 0 20 4.48277 20 9.93102C20 15.3793 15.4483 20 9.96551 20C8.24137 20 6.58621 19.4483 5.10344 18.6207L0 20Z" fill="#FF9191"/>
<path d="M5.37928 16.828L5.68963 17.0005C6.96549 17.7936 8.44826 18.2763 9.99998 18.2763C14.5172 18.2763 18.2758 14.5177 18.2758 9.93149C18.2758 5.34527 14.5172 1.72461 9.96549 1.72461C5.41377 1.72461 1.72412 5.37977 1.72412 9.93149C1.72412 11.5177 2.1724 13.0694 2.99998 14.3798L3.20689 14.6901L2.41381 17.5867L5.37928 16.828Z" fill="#FF9191"/>
<path d="M7.31045 5.30988L6.6553 5.27539C6.44838 5.27539 6.24151 5.34437 6.10358 5.4823C5.79323 5.75816 5.276 6.27539 5.13807 6.96508C4.8967 7.99957 5.276 9.24094 6.17256 10.4823C7.06913 11.7237 8.79327 13.7237 11.8277 14.5857C12.7932 14.8616 13.5519 14.6892 14.1726 14.3099C14.6553 13.9995 14.9656 13.5168 15.0691 12.9995L15.1726 12.5168C15.2071 12.3788 15.1381 12.2064 15.0001 12.1375L12.8277 11.1375C12.6898 11.0685 12.5174 11.103 12.4139 11.2409L11.5519 12.3443C11.4829 12.4133 11.3794 12.4478 11.276 12.4133C10.6898 12.2064 8.72428 11.3788 7.6553 9.30988C7.62081 9.20644 7.62081 9.10297 7.68979 9.03402L8.51737 8.10301C8.58635 7.99957 8.62081 7.86164 8.58635 7.75816L7.58635 5.5168C7.55182 5.41332 7.44838 5.30988 7.31045 5.30988Z" fill="white"/>
</svg>
