<svg width="20" height="12" viewBox="0 0 20 12" fill="none" xmlns="http://www.w3.org/2000/svg">
<path d="M19.1716 9.50887C18.5762 8.79465 17.8754 8.18509 17.2124 7.5378C16.6142 6.95436 16.5765 6.6159 17.0573 5.94251C17.5821 5.20755 18.1465 4.50079 18.6761 3.76915C19.1704 3.08539 19.6757 2.4035 19.9358 1.58481C20.1008 1.06396 19.9549 0.833898 19.4208 0.742702C19.3287 0.726743 19.2336 0.725914 19.1399 0.725914L15.9711 0.722183C15.5808 0.71638 15.365 0.886543 15.227 1.23246C15.0407 1.70005 14.8485 2.16722 14.6266 2.61843C14.1229 3.64148 13.5604 4.63033 12.7718 5.46767C12.5979 5.65234 12.4055 5.88572 12.115 5.78955C11.7514 5.6569 11.6443 5.05791 11.6503 4.85541L11.6472 1.19785C11.5767 0.675342 11.4608 0.442379 10.9421 0.34082L7.65032 0.341442C7.21092 0.341442 6.9906 0.51119 6.75598 0.78602C6.62064 0.944783 6.57981 1.04779 6.85795 1.10044C7.4043 1.20407 7.71208 1.55766 7.79374 2.10545C7.92473 2.98072 7.91561 3.85952 7.84017 4.73831C7.81799 4.9949 7.77385 5.25087 7.67208 5.49047C7.5129 5.86706 7.2559 5.94375 6.91827 5.71203C6.61256 5.50228 6.39783 5.20631 6.18767 4.90909C5.3982 3.79361 4.76833 2.59066 4.25474 1.32656C4.10634 0.961365 3.85037 0.740008 3.46341 0.733997C2.5127 0.718867 1.56178 0.71638 0.611063 0.734826C0.0390191 0.745604 -0.131558 1.02334 0.101405 1.54191C1.13689 3.84522 2.28948 6.08448 3.79399 8.12436C4.56646 9.17124 5.45334 10.0954 6.59908 10.7504C7.89758 11.4928 9.29536 11.7162 10.7675 11.6474C11.4569 11.6151 11.664 11.4358 11.6959 10.7487C11.7174 10.2786 11.7707 9.81127 12.0026 9.38887C12.2302 8.97434 12.5749 8.89538 12.9722 9.15321C13.171 9.28233 13.3384 9.44669 13.4966 9.61996C13.8846 10.0444 14.2587 10.4818 14.6614 10.8919C15.1665 11.4059 15.7649 11.7096 16.5172 11.6476L19.4297 11.6482C19.8989 11.6176 20.1422 11.0422 19.8728 10.5184C19.6836 10.1516 19.4353 9.82495 19.1716 9.50887Z" fill="#FF9191"/>
</svg>
