<svg width="20" height="16" viewBox="0 0 20 16" fill="none" xmlns="http://www.w3.org/2000/svg">
<path d="M19.2205 2.17113C18.4985 1.31293 17.1656 0.962891 14.6201 0.962891H5.37973C2.77594 0.962891 1.42043 1.33555 0.701211 2.24922C0 3.14 0 4.45258 0 6.26926V9.73176C0 13.2512 0.831992 15.0381 5.37973 15.0381H14.6201C16.8276 15.0381 18.0508 14.7292 18.8422 13.9718C19.6537 13.1952 20 11.9271 20 9.73176V6.26926C20 4.35344 19.9457 3.03312 19.2205 2.17113ZM12.8401 8.47852L8.64406 10.6715C8.55027 10.7205 8.44766 10.7448 8.34523 10.7448C8.22922 10.7448 8.11348 10.7136 8.01098 10.6516C7.81793 10.5346 7.70008 10.3254 7.70008 10.0997V5.72781C7.70008 5.50254 7.81762 5.29348 8.01027 5.17645C8.20297 5.05941 8.44266 5.05141 8.64258 5.15527L12.8386 7.3341C13.0521 7.44492 13.1861 7.66531 13.1864 7.90578C13.1867 8.14648 13.0532 8.36719 12.8401 8.47852Z" fill="#FF9191"/>
</svg>
